HIERARCHY
ROOT hip
{
	OFFSET 0.000000 0.000000 0.000000 
	CHANNELS 6 Xposition Yposition Zposition Xrotation Zrotation Yrotation
	JOINT abdomen
	{
		OFFSET 0.000000 3.402643 0.000000 
		CHANNELS 3 Xrotation Zrotation Yrotation
		JOINT chest
		{
			OFFSET 0.000000 8.438565 -0.680529 
			CHANNELS 3 Xrotation Zrotation Yrotation
			JOINT neck
			{
				OFFSET 0.000000 10.207942 -0.272212 
				CHANNELS 3 Xrotation Zrotation Yrotation
				JOINT head
				{
					OFFSET 0.000000 3.130431 0.000000 
					CHANNELS 3 Xrotation Zrotation Yrotation
					End Site
					{
						OFFSET 0.000000 3.130435 0.000000 
					}
				}
			}
			JOINT lCollar
			{
				OFFSET 3.470700 6.669187 -0.816635 
				CHANNELS 3 Yrotation Zrotation Xrotation
				JOINT lShldr
				{
					OFFSET 3.198488 0.000000 0.000000 
					CHANNELS 3 Zrotation Yrotation Xrotation
					JOINT lForeArm
					{
						OFFSET 10.139888 0.000000 0.000000 
						CHANNELS 3 Yrotation Zrotation Xrotation
						JOINT lHand
						{
							OFFSET 8.370511 0.000000 0.000000 
							CHANNELS 3 Zrotation Yrotation Xrotation
							End Site
							{
								OFFSET 4.083176 0.000000 0.000000 
							}
						}
					}
				}
			}
			JOINT rCollar
			{
				OFFSET -3.470700 6.669187 -0.816635 
				CHANNELS 3 Yrotation Zrotation Xrotation
				JOINT rShldr
				{
					OFFSET -3.198488 0.000000 0.000000 
					CHANNELS 3 Zrotation Yrotation Xrotation
					JOINT rForeArm
					{
						OFFSET -10.139888 0.000000 0.000000 
						CHANNELS 3 Yrotation Zrotation Xrotation
						JOINT rHand
						{
							OFFSET -8.370511 0.000000 0.000000 
							CHANNELS 3 Zrotation Yrotation Xrotation
							End Site
							{
								OFFSET -4.083176 0.000000 0.000000 
							}
						}
					}
				}
			}
		}
	}
	JOINT lThigh
	{
		OFFSET 5.308129 -1.633274 1.361059 
		CHANNELS 3 Xrotation Zrotation Yrotation
		JOINT lShin
		{
			OFFSET -2.041588 -20.007561 0.000000 
			CHANNELS 3 Xrotation Zrotation Yrotation
			JOINT lFoot
			{
				OFFSET 0.000000 -19.190928 -1.224953 
				CHANNELS 3 Xrotation Yrotation Zrotation
				End Site
				{
					OFFSET 0.000000 -2.449906 4.627600 
				}
			}
		}
	}
	JOINT rThigh
	{
		OFFSET -5.308129 -1.633274 1.361059 
		CHANNELS 3 Xrotation Zrotation Yrotation
		JOINT rShin
		{
			OFFSET 2.041588 -20.007561 0.000000 
			CHANNELS 3 Xrotation Zrotation Yrotation
			JOINT rFoot
			{
				OFFSET 0.000000 -19.190928 -1.224953 
				CHANNELS 3 Xrotation Yrotation Zrotation
				End Site
				{
					OFFSET 0.000000 -2.449906 4.627600 
				}
			}
		}
	}
}
MOTION
Frames: 11
Frame Time: 0.033333
-0.859982 45.081272 -4.705797 -11.259768 -0.028733 2.486189 0.000000 0.000000 0.000000 -3.105473 -0.097513 -0.893147 0.469714 0.067424 -1.897712 14.026602 -1.954112 -0.722810 -7.886521 2.932587 -2.052844 11.700918 -60.759872 -33.838596 -0.178465 -10.225390 26.608513 5.806970 -16.318457 -4.206919 4.191685 0.756431 -2.265367 -13.850741 58.601254 -38.427128 0.357845 7.827085 46.158623 -15.274635 21.271048 -6.455346 -11.236808 18.108110 6.834499 47.122925 2.323352 -2.011622 -22.004351 2.865804 -14.783007 -10.448260 -20.572765 -11.397144 51.456741 -0.514991 5.130558 -26.116537 -1.216809 5.379710 
-0.999669 45.086559 -4.631386 -12.355979 -1.135198 2.621656 0.000000 0.000000 0.000000 -2.265773 0.653785 -1.021959 1.117513 0.523262 -1.898841 13.361938 -1.878274 -0.703433 -8.096070 3.536537 -1.180553 12.369106 -60.653439 -34.761322 -0.166761 -10.131657 26.403690 4.987070 -15.950033 -4.056289 4.324388 1.392929 -1.550659 -14.266349 58.300480 -39.558720 0.360347 7.651988 46.780582 -15.183789 21.375557 -6.451282 -10.311368 19.665190 7.444887 47.317005 2.691532 -3.026132 -22.199343 2.876649 -14.724998 -9.031985 -19.154741 -11.460614 51.114941 -0.390158 4.680019 -26.068085 -1.234621 5.378864 
-0.988466 45.096375 -4.629095 -12.169788 -0.983259 2.555753 0.000000 0.000000 0.000000 -2.373155 0.546406 -1.028503 1.351584 0.434273 -1.821755 13.000062 -1.733169 -0.651047 -8.043877 3.375184 -1.304837 12.333693 -60.703545 -34.889568 -0.166870 -10.146567 26.325914 5.287868 -16.136400 -4.116107 4.366046 1.081929 -1.633070 -13.504905 58.321884 -39.099022 0.365432 7.577787 47.031830 -15.093109 21.362511 -6.428091 -10.407105 19.464735 7.379726 47.219978 2.596437 -2.899175 -22.139912 2.880935 -14.731948 -9.247151 -19.312948 -11.436276 51.139820 -0.447035 4.761826 -26.088924 -1.241477 5.351630 
-0.985575 45.119907 -4.613995 -12.101454 -0.993060 2.566392 0.000000 0.000000 0.000000 -2.353626 0.556171 -1.048249 1.526938 0.482724 -1.799030 12.570118 -1.704893 -0.587190 -8.053075 3.432370 -1.287777 12.506832 -60.786110 -35.043701 -0.166879 -10.145281 26.345404 4.516437 -15.891759 -3.979704 4.404279 1.081808 -1.623743 -13.284643 58.219406 -38.993553 0.361648 7.628254 46.847221 -14.975359 21.263254 -6.390765 -10.409789 19.471275 7.409908 47.114384 2.577178 -2.876301 -22.101282 2.868563 -14.716534 -9.227571 -19.253136 -11.370070 51.007137 -0.448748 4.648994 -26.048185 -1.237377 5.388336 
-0.970976 45.150620 -4.591341 -12.130616 -0.954761 2.548928 0.000000 0.000000 0.000000 -2.314562 0.556186 -1.057635 1.761156 0.482924 -1.777627 12.306202 -1.637202 -0.565156 -8.119581 3.546087 -1.240674 12.240396 -60.829479 -34.899761 -0.175340 -10.042999 26.411837 5.537457 -16.012775 -4.149303 4.408908 1.202492 -1.586309 -13.174335 58.177483 -38.906506 0.346324 7.734328 46.558971 -14.974765 21.135965 -6.377885 -10.231681 19.416681 7.468462 46.931049 2.538484 -2.869714 -22.043318 2.855501 -14.700493 -9.091309 -19.255325 -11.365028 50.830521 -0.477996 4.647952 -25.996986 -1.239236 5.443680 
-0.948324 45.171249 -4.562034 -12.091583 -0.964450 2.521025 0.000000 0.000000 0.000000 -2.324357 0.624486 -1.070268 2.063612 0.569940 -1.742153 11.622725 -1.882151 -0.460850 -8.103592 3.497294 -1.247217 12.321948 -60.898819 -34.879539 -0.176470 -10.102975 26.538033 5.225183 -16.091467 -4.103169 4.438416 1.269081 -1.601908 -13.088125 58.146698 -38.888393 0.350532 7.713128 46.743980 -14.861896 21.095116 -6.350331 -10.174875 19.381784 7.456221 46.834351 2.548295 -2.825178 -22.044230 2.852028 -14.691361 -9.022871 -19.196091 -11.313736 50.673645 -0.517656 4.633779 -25.964157 -1.260162 5.532727 
-0.922904 45.180943 -4.541734 -11.935146 -0.917237 2.400877 0.000000 0.000000 0.000000 -2.422024 0.634199 -1.061979 2.180367 0.600610 -1.671827 11.388383 -1.980083 -0.370016 -8.089119 3.520360 -1.342577 12.182387 -60.923985 -34.704597 -0.177164 -10.156938 26.460949 5.355286 -16.249544 -4.131768 4.430888 1.300596 -1.702387 -13.011541 58.231773 -38.752468 0.349769 7.725298 46.705139 -14.807050 20.912968 -6.315908 -10.204906 19.285908 7.475290 46.804855 2.479927 -2.678137 -22.072851 2.854702 -14.701342 -9.197573 -19.231485 -11.195952 50.641903 -0.585879 4.650175 -25.954689 -1.266076 5.528702 
-0.892576 45.176785 -4.526696 -11.837352 -0.879334 2.381537 0.000000 0.000000 0.000000 -2.470864 0.653689 -1.112190 2.267649 0.661567 -1.658223 11.368923 -2.028887 -0.283812 -8.192106 3.636678 -1.372420 12.008597 -60.879082 -34.432800 -0.178092 -10.190310 26.695686 5.520391 -16.053019 -4.148259 4.402073 1.318344 -1.742698 -13.057079 58.301750 -38.819851 0.356564 7.743334 46.567303 -14.810261 20.951914 -6.315906 -10.301027 19.174963 7.398419 46.837151 2.488976 -2.587344 -22.140591 2.868924 -14.717229 -9.305624 -19.330996 -11.193375 50.639858 -0.575880 4.712613 -25.943907 -1.275719 5.556395 
-0.869169 45.165466 -4.503982 -11.827378 -0.812458 2.435738 0.000000 0.000000 0.000000 -2.382963 0.643974 -1.169375 2.209209 0.654969 -1.698924 11.476130 -1.862892 -0.308573 -8.232768 3.704541 -1.284306 12.156088 -60.886330 -34.842480 -0.168612 -9.958569 28.137136 5.726604 -16.020210 -4.188557 4.283285 1.308806 -1.661118 -13.608516 58.297783 -39.371323 0.356244 7.723807 46.567028 -14.781382 20.963783 -6.314670 -10.328849 19.074594 7.358058 46.895409 2.515726 -2.557998 -22.179810 2.868978 -14.718170 -9.296117 -19.468515 -11.281368 50.717674 -0.566129 4.729718 -26.013807 -1.266135 5.517709 
-0.853188 45.143433 -4.480386 -11.817473 -0.764693 2.474430 0.000000 0.000000 0.000000 -2.334123 0.624481 -1.207093 2.285572 0.741355 -1.681722 11.534802 -1.892054 -0.214323 -8.333473 3.662643 -1.246061 12.366510 -60.944576 -35.348568 -0.175179 -10.034524 26.392172 4.975845 -15.931173 -4.055756 4.131654 1.179887 -1.607589 -13.619652 58.366413 -39.371330 0.357690 7.709829 46.635098 -14.701967 21.087027 -6.314455 -10.369727 19.029903 7.355697 47.030865 2.496046 -2.627194 -22.296949 2.911562 -14.672539 -9.355194 -19.519426 -11.245031 50.903072 -0.634546 4.686690 -26.162947 -1.238299 5.445802 
-0.838590 45.135387 -4.453608 -11.817500 -0.774252 2.417836 0.000000 0.000000 0.000000 -2.373202 0.653736 -1.257560 2.579597 0.709535 -1.682781 11.338869 -1.531457 -0.249176 -8.455832 3.475447 -1.285079 12.035440 -60.846085 -34.882771 -0.176130 -10.087310 26.479214 4.455127 -15.866266 -3.966717 4.133233 1.235957 -1.651772 -13.289734 58.411606 -38.739410 0.358559 7.748280 46.645390 -14.752005 21.210760 -6.339146 -10.331019 19.069195 7.398181 47.101612 2.440233 -2.651344 -22.388315 2.896093 -14.639435 -9.353763 -19.514421 -11.195338 50.922035 -0.683361 4.665311 -26.190126 -1.255839 5.503038 
